Coordinates
version=1
nRows=17
nColumns=40
inDegrees=yes

Units are S.I. units (second, meters, Newtons, ...)
Angles are in degrees.

endheader
time	pelvis_tilt	pelvis_list	pelvis_rotation	pelvis_tx	pelvis_ty	pelvis_tz	hip_flexion_r	hip_adduction_r	hip_rotation_r	knee_angle_r	knee_angle_r_beta	ankle_angle_r	subtalar_angle_r	mtp_angle_r	hip_flexion_l	hip_adduction_l	hip_rotation_l	knee_angle_l	knee_angle_l_beta	ankle_angle_l	subtalar_angle_l	mtp_angle_l	lumbar_extension	lumbar_bending	lumbar_rotation	arm_flex_r	arm_add_r	arm_rot_r	elbow_flex_r	pro_sup_r	wrist_flex_r	wrist_dev_r	arm_flex_l	arm_add_l	arm_rot_l	elbow_flex_l	pro_sup_l	wrist_flex_l	wrist_dev_l
     53.28500000	     -5.56110499	     -3.80312853	     -4.17142439	      0.94235879	      0.92962748	      0.41470391	     36.60615265	     -5.61485846	     -5.05517857	     61.41086962	     61.41086962	     -1.71716336	    -13.86395681	      0.04213283	     13.98721865	     -4.95533990	     -7.10917248	     21.16109095	     21.16109095	     14.30087267	     -9.75393534	     -1.62154490	    -11.68455141	      4.46548199	      2.99037783	     12.72771450	    -12.86419497	      6.46104259	     50.04792688	     46.11216441	      0.00000000	      0.00000000	     14.66441906	    -17.62466932	      4.19020412	     64.05635046	     46.31850836	      0.00000000	      0.00000000
     53.29657143	     -5.51166348	     -3.83067155	     -4.47214639	      0.94164955	      0.92993165	      0.41512064	     36.91561380	     -5.44610358	     -5.27856377	     59.00294470	     59.00294470	     -1.52207954	    -12.70023484	      0.04859416	     13.02489102	     -4.97667617	     -7.47326893	     20.56297031	     20.56297031	     14.58374833	     -9.49078281	     -1.72174381	    -11.84085824	      4.50661739	      3.57898273	     10.68165087	    -13.61314380	      6.57919367	     47.55026758	     46.17785367	      0.00000000	      0.00000000	     16.30566445	    -17.70206241	      3.72609465	     65.93964731	     46.40204517	      0.00000000	      0.00000000
     53.30814286	     -5.50701046	     -3.80041097	     -4.79336884	      0.94091378	      0.93006003	      0.41572685	     37.18295520	     -5.23415881	     -5.35698591	     56.35660848	     56.35660848	     -1.49389821	    -11.63900760	     -0.38641671	     12.10668930	     -4.99691690	     -8.08308023	     19.94638759	     19.94638759	     14.66745385	     -8.95634235	     -2.53613158	    -11.85539342	      4.47720527	      3.06802858	     10.90121320	    -12.97588519	      5.74467829	     40.05113665	     46.45477703	      0.00000000	      0.00000000	     16.69040534	    -18.92601062	      3.48333656	     69.54203769	     46.53575509	      0.00000000	      0.00000000
     53.31971429	     -5.54428212	     -3.74691442	     -5.06089829	      0.94026728	      0.93010192	      0.41625419	     37.33895861	     -5.08912074	     -5.51257622	     53.45345490	     53.45345490	     -1.41879758	    -10.41262319	     -0.81485167	     11.17039422	     -4.92650543	     -8.52795147	     19.18666091	     19.18666091	     14.77027417	     -8.60505484	     -3.04944393	    -11.90668837	      4.46895329	      2.91347010	     10.04874852	    -13.00716711	      4.78644022	     35.32333097	     46.63205608	      0.00000000	      0.00000000	     17.36254587	    -19.42804119	      2.37580946	     72.64391404	     46.73070658	      0.00000000	      0.00000000
     53.33128571	     -5.58652452	     -3.69946587	     -5.27040735	      0.93975025	      0.93010778	      0.41671650	     37.34094234	     -4.97982946	     -5.76328910	     50.30371231	     50.30371231	     -1.20307323	     -8.97297352	     -0.75172128	     10.22204114	     -4.83383318	     -8.86567863	     18.40258912	     18.40258912	     14.99874046	     -8.16841934	     -3.14864056	    -11.93004558	      4.52045422	      3.27293507	      7.98115766	    -13.78786003	      4.60642813	     33.41966870	     46.69369467	      0.00000000	      0.00000000	     18.74179197	    -19.46416770	      1.90142863	     74.62659755	     46.81491304	      0.00000000	      0.00000000
     53.34285714	     -5.61923483	     -3.58214187	     -5.47577441	      0.93936795	      0.92994984	      0.41731828	     37.22122210	     -4.91387735	     -6.02037541	     46.99277166	     46.99277166	     -0.94355647	     -7.52949344	     -0.79589178	      9.22844166	     -4.67777445	     -9.33939782	     17.56075350	     17.56075350	     15.20341033	     -7.57531972	     -3.43457956	    -12.00112515	      4.43544082	      3.61687444	      6.08600101	    -14.39082578	      4.17808824	     31.02057374	     46.79339226	      0.00000000	      0.00000000	     19.93144946	    -19.70387059	      1.52422241	     77.29842989	     46.90625409	      0.00000000	      0.00000000
     53.35442857	     -5.72298178	     -3.45550393	     -5.58942133	      0.93906438	      0.92948598	      0.41795390	     36.99250861	     -4.83530239	     -6.30553432	     43.40489394	     43.40489394	     -1.02769559	     -6.37923919	     -1.54452569	      8.36023678	     -4.54510036	     -9.86060378	     16.77162838	     16.77162838	     15.16230590	     -6.86091150	     -4.55129063	    -11.95551879	      4.36387436	      2.72115324	      5.77575624	    -14.09239382	      1.73634952	     26.38851750	     47.11943867	      0.00000000	      0.00000000	     19.63299323	    -21.12149081	      0.72840282	     81.88047436	     47.09825529	      0.00000000	      0.00000000
     53.36600000	     -5.83630561	     -3.34243111	     -5.65185126	      0.93889084	      0.92896936	      0.41852059	     36.60351260	     -4.76021561	     -6.71659782	     39.66496327	     39.66496327	     -0.76673054	     -5.01915225	     -1.19558407	      7.49246092	     -4.35830434	    -10.07878909	     15.97866412	     15.97866412	     15.39205637	     -6.40876487	     -4.64480231	    -11.85864074	      4.37860387	      2.86147021	      3.66654102	    -14.76096783	      1.38632239	     25.14717630	     47.17489798	      0.00000000	      0.00000000	     20.85118015	    -21.15647596	      0.10878826	     83.70676999	     47.18631710	      0.00000000	      0.00000000
     53.37757143	     -5.83701797	     -3.12926662	     -5.70332783	      0.93902046	      0.92829190	      0.41921418	     36.00144030	     -4.79030102	     -7.19638483	     35.93986012	     35.93986012	     -0.38608502	     -3.60291858	     -0.80295278	      6.45975413	     -4.07183016	    -10.44467583	     15.13015941	     15.13015941	     15.63008372	     -5.73433316	     -4.93088982	    -11.88039418	      4.21246167	      3.06549862	      1.56496841	    -15.32199839	      0.83897197	     23.97206237	     47.24480987	      0.00000000	      0.00000000	     21.87226599	    -21.30367939	     -0.39965360	     86.41014526	     47.28491666	      0.00000000	      0.00000000
     53.38914286	     -5.84856425	     -2.85049653	     -5.70115386	      0.93937222	      0.92729257	      0.41995878	     35.35130335	     -4.89191677	     -7.75327501	     32.33337063	     32.33337063	      0.03779388	     -2.16405934	     -0.09052296	      5.42946899	     -3.72762989	    -10.89967870	     14.25778449	     14.25778449	     15.78759367	     -4.84457997	     -5.59465506	    -11.90530186	      3.96415613	      2.86233193	     -0.36475570	    -15.65147727	     -0.46718570	     23.12275256	     47.36307279	      0.00000000	      0.00000000	     22.27686092	    -21.89045281	     -1.00943204	     90.33300728	     47.42605981	      0.00000000	      0.00000000
     53.40071429	     -5.86265718	     -2.66036928	     -5.63806481	      0.93990640	      0.92609132	      0.42090595	     34.59195439	     -4.87077620	     -8.42966714	     28.85621497	     28.85621497	      0.64725799	     -0.90003008	      1.49908488	      4.47131393	     -3.49511182	    -11.17702269	     13.54068069	     13.54068069	     15.94864435	     -4.14755509	     -6.36877875	    -11.89086704	      3.81280999	      2.38124397	     -2.20992846	    -15.91593886	     -2.40021174	     22.73447648	     47.50740647	      0.00000000	      0.00000000	     22.36943693	    -22.57874919	     -1.93184074	     94.00495429	     47.60037323	      0.00000000	      0.00000000
     53.41228571	     -5.83597890	     -2.50727911	     -5.52123595	      0.94067095	      0.92471144	      0.42198888	     33.68226894	     -4.77366267	     -9.12360366	     25.52687940	     25.52687940	      0.96548660	      0.00686125	      2.52956340	      3.51200425	     -3.29256951	    -11.23919132	     12.94157236	     12.94157236	     16.31836860	     -3.68790496	     -6.60338834	    -11.80643926	      3.71143833	      2.39024075	     -4.25521240	    -16.30278918	     -2.80374150	     22.06048341	     47.54545959	      0.00000000	      0.00000000	     23.31335398	    -22.72230146	     -2.32182278	     96.12110359	     47.68247543	      0.00000000	      0.00000000
     53.42385714	     -5.79559378	     -2.24287593	     -5.41685725	      0.94163828	      0.92303864	      0.42329341	     33.01861178	     -4.84408133	     -9.90750256	     23.10031121	     23.10031121	      2.07315848	      1.19255660	      5.61303659	      2.52837685	     -3.01019716	    -11.52586640	     12.33624249	     12.33624249	     16.62578577	     -2.90771347	     -7.23561590	    -11.83793779	      3.42456511	      2.02871982	     -6.50691492	    -16.48780400	     -4.71986671	     22.99125846	     47.60405567	      0.00000000	      0.00000000	     23.41992743	    -23.47485869	     -3.03173587	    100.04603152	     47.86280944	      0.00000000	      0.00000000
     53.43542857	     -5.73163807	     -2.07788331	     -5.28140940	      0.94280867	      0.92126643	      0.42484051	     32.21137060	     -4.74914655	    -10.60465829	     20.83593220	     20.83593220	      2.29452912	      1.77172494	      6.49643321	      1.56134968	     -2.83321257	    -11.51840088	     11.85887731	     11.85887731	     17.08818760	     -2.50460177	     -7.36828064	    -11.76059730	      3.24903272	      2.17885782	     -8.60117781	    -16.71299277	     -4.98974486	     22.46856321	     47.61698487	      0.00000000	      0.00000000	     24.30776279	    -23.47626759	     -3.27744155	    102.20299533	     47.93467922	      0.00000000	      0.00000000
     53.44700000	     -5.70859801	     -1.90601201	     -5.15891558	      0.94405962	      0.91931025	      0.42667526	     31.58493837	     -4.67084547	    -11.25743614	     19.24031532	     19.24031532	      2.49644959	      2.21036084	      7.23728999	      0.68945527	     -2.68616231	    -11.53390637	     11.49403798	     11.49403798	     17.57465421	     -2.12900756	     -7.46309632	    -11.64114052	      3.03615686	      2.27927397	    -10.64680347	    -16.79685357	     -5.27573336	     22.29348700	     47.61629797	      0.00000000	      0.00000000	     25.03968650	    -23.72061818	     -3.49749125	    104.65498700	     48.01264102	      0.00000000	      0.00000000
     53.45857143	     -5.65462317	     -1.79565709	     -5.01256708	      0.94540136	      0.91732975	      0.42870688	     31.07071156	     -4.58443622	    -11.85909466	     18.34431068	     18.34431068	      2.63009080	      2.43423637	      7.70379843	     -0.13405550	     -2.64236598	    -11.48977698	     11.30928758	     11.30928758	     18.16339515	     -1.80712401	     -7.44478701	    -11.59401132	      2.86814338	      2.33749459	    -12.70608565	    -16.86396896	     -5.61924043	     22.47984134	     47.60081572	      0.00000000	      0.00000000	     25.50725125	    -23.94146417	     -3.67845419	    107.37510976	     48.09471303	      0.00000000	      0.00000000
     53.47014286	     -5.65179441	     -1.73761607	     -4.85197472	      0.94674820	      0.91530853	      0.43103937	     30.73764772	     -4.46385900	    -12.30474756	     18.05213735	     18.05213735	      2.61729485	      2.33765695	      7.66324857	     -0.77826497	     -2.71033102	    -11.37347080	     11.38854838	     11.38854838	     18.82894689	     -1.63074631	     -7.24112302	    -11.48390251	      2.74700687	      2.37578071	    -14.65522069	    -16.85540450	     -5.95661767	     22.88408695	     47.57350848	      0.00000000	      0.00000000	     25.84051901	    -24.18019315	     -3.94555720	    109.94004518	     48.18030544	      0.00000000	      0.00000000
